<svg viewBox="0 0 1024 1024" version="1.1"
  xmlns="http://www.w3.org/2000/svg" p-id="4199" xmlns:xlink="http://www.w3.org/1999/xlink"
  width="64" height="64">
  <path
    d="M34.13333333 512c0 208.21333333 133.12 385.70666667 320.85333334 450.56 23.89333333 6.82666667 20.48-10.24 20.48-23.89333333v-81.92c-143.36 17.06666667-150.18666667-78.50666667-160.42666667-95.57333334-20.48-34.13333333-64.85333333-40.96-51.2-58.02666666 34.13333333-17.06666667 68.26666667 3.41333333 105.81333333 61.44 27.30666667 40.96 81.92 34.13333333 112.64 27.30666666 6.82666667-23.89333333 20.48-47.78666667 37.54666667-64.85333333-153.6-23.89333333-215.04-116.05333333-215.04-225.28 0-51.2 17.06666667-102.4 51.2-139.94666667-23.89333333-64.85333333 0-122.88 3.41333333-129.70666666 61.44-6.82666667 126.29333333 44.37333333 133.12 47.78666666 34.13333333-10.24 75.09333333-13.65333333 119.46666667-13.65333333 44.37333333 0 85.33333333 6.82666667 119.46666667 13.65333333 13.65333333-10.24 71.68-51.2 129.70666666-47.78666666 3.41333333 6.82666667 27.30666667 61.44 6.82666667 126.29333333 34.13333333 40.96 51.2 88.74666667 51.2 139.94666667 0 109.22666667-61.44 201.38666667-215.04 228.69333333 23.89333333 23.89333333 40.96 58.02666667 40.96 98.98666667v119.46666666c0 10.24 0 20.48 17.06666667 20.48C853.33333333 901.12 989.86666667 723.62666667 989.86666667 512c0-262.82666667-215.04-477.86666667-477.86666667-477.86666667S34.13333333 249.17333333 34.13333333 512z"
    fill="currentColor"></path>
</svg>