<svg viewBox="0 0 1024 1024" version="1.1"
  xmlns="http://www.w3.org/2000/svg" p-id="4032" xmlns:xlink="http://www.w3.org/1999/xlink"
  width="64" height="64">
  <path d="M511.0625 34.90625C162.3125 34.90625 32 339.5 32 510.125s124.59375 479.0625 469.5 479.0625c0 0 86.25 1.875 86.25-74.71875s-38.34375-51.75-38.34375-107.34375 38.34375-80.4375 57.46875-80.4375 139.875 9.5625 208.875-17.25c67.03125-26.8125 176.25-109.21875 176.25-251.0625C990.125 333.78125 859.8125 34.90625 511.0625 34.90625zM219.78125 512c-46.03125 0-82.40625-36.375-82.40625-82.40625s36.375-82.40625 82.40625-82.40625 82.40625 36.375 82.40625 82.40625-36.375 82.40625-82.40625 82.40625z m155.25-205.03125c-46.03125 0-82.40625-36.375-82.40625-82.40625s36.375-82.40625 82.40625-82.40625 82.40625 36.375 82.40625 82.40625c1.875 44.0625-36.46875 82.40625-82.40625 82.40625z m268.21875 0c-46.03125 0-82.40625-36.375-82.40625-82.40625s36.375-82.40625 82.40625-82.40625c46.03125 0 82.40625 36.375 82.40625 82.40625 0 44.0625-36.375 82.40625-82.40625 82.40625zM800.375 512c-46.03125 0-82.40625-36.375-82.40625-82.40625s36.375-82.40625 82.40625-82.40625c46.03125 0 82.40625 36.375 82.40625 82.40625 1.875 46.03125-36.375 82.40625-82.40625 82.40625z" fill="currentColor"></path>
</svg>