<svg viewBox="0 0 1024 1024" xmlns="http://www.w3.org/2000/svg" width="64" height="64"><path d="M738.793 681.382v-48.331l88.242-88.243a298.676 298.676 0 00156.712-83.482 38.836 38.836 0 000-54.923l-366.15-366.15a38.836 38.836 0 00-54.923 0 298.52 298.52 0 00-83.519 156.749l-88.169 88.169h-48.332a411.145 411.145 0 00-292.59 121.232c-15.16 15.159-15.16 39.764 0 54.923L278.906 690.17 86.642 882.436a38.836 38.836 0 1054.922 54.922l192.23-192.229 228.844 228.845a38.836 38.836 0 0054.922 0 411.042 411.042 0 00121.233-292.592zM134.02 435.44a333.473 333.473 0 01208.56-72.571l64.406.037a38.836 38.836 0 0027.461-11.351L544.292 241.71a38.68 38.68 0 0011.351-27.462 180.096 180.096 0 0136.798-89.01L898.8 431.593a180.925 180.925 0 01-89.12 36.835 38.836 38.836 0 00-27.462 11.35L672.373 589.626c-7.287 7.286-11.387 17.173-11.35 27.461l.036 64.406a333.318 333.318 0 01-72.608 208.596L134.021 435.44z"/></svg>